<svg xmlns="http://www.w3.org/2000/svg" viewBox="0 0 105.2 69.21">
    <path d="M90.43,67.28a23.6,23.6,0,0,0,7.81-5.39,24.52,24.52,0,0,0,5.14-8.12,27.36,27.36,0,0,0,1.82-10.11V26H86.87a11.93,11.93,0,0,0,2.16-3,14.3,14.3,0,0,0,1.47-6.54,15.51,15.51,0,0,0-2.31-8.44,16.43,16.43,0,0,0-6.3-5.81,20.06,20.06,0,0,0-18,0A16.3,16.3,0,0,0,57.6,8a15.55,15.55,0,0,0-2.31,8.4A14.06,14.06,0,0,0,56.83,23,12.79,12.79,0,0,0,59,26l.07.07H56v9.45H96.73v8a16.66,16.66,0,0,1-2,8.26,14.42,14.42,0,0,1-5.6,5.6,17,17,0,0,1-8.44,2,17.67,17.67,0,0,1-8.61-2,14.08,14.08,0,0,1-5.63-5.56,16.81,16.81,0,0,1-2-8.33V34.61H56V43.8a27.38,27.38,0,0,0,1.82,10A24.21,24.21,0,0,0,63,61.93a23.86,23.86,0,0,0,7.84,5.35,24.87,24.87,0,0,0,9.83,1.93A24.59,24.59,0,0,0,90.43,67.28ZM69.39,26a8.08,8.08,0,0,1-1.25-.53,8,8,0,0,1-3.22-3,8.6,8.6,0,0,1-1.16-4.51,8.49,8.49,0,0,1,1.16-4.41,7.89,7.89,0,0,1,3.22-3,10.19,10.19,0,0,1,4.79-1.08,9.81,9.81,0,0,1,4.69,1.08,8.26,8.26,0,0,1,3.22,3A8.35,8.35,0,0,1,82,18a8.44,8.44,0,0,1-1.15,4.44A8.3,8.3,0,0,1,76.41,26a10.5,10.5,0,0,1-3.48.56A10.77,10.77,0,0,1,69.39,26Z"/>
    <path d="M59,26H56V26h3.08Z"/>
    <path d="M24.57,69.21a24.87,24.87,0,0,0,9.83-1.93,23.86,23.86,0,0,0,7.84-5.35,24.21,24.21,0,0,0,5.15-8.09,27.38,27.38,0,0,0,1.82-10V34.61H40.74v8.91a16.81,16.81,0,0,1-2,8.33,14.08,14.08,0,0,1-5.63,5.56,17.67,17.67,0,0,1-8.61,2,17,17,0,0,1-8.44-2,14.42,14.42,0,0,1-5.6-5.6,16.66,16.66,0,0,1-2-8.26v-8H49.21V26H46.13L46.2,26a12.79,12.79,0,0,0,2.17-3,14.06,14.06,0,0,0,1.54-6.58A15.55,15.55,0,0,0,47.6,8a16.3,16.3,0,0,0-6.3-5.85,18.73,18.73,0,0,0-9-2.13,18.87,18.87,0,0,0-9,2.13A16.43,16.43,0,0,0,17,7.94a15.51,15.51,0,0,0-2.31,8.44,14.3,14.3,0,0,0,1.47,6.54,11.93,11.93,0,0,0,2.16,3H0V43.66A27.36,27.36,0,0,0,1.82,53.77,24.52,24.52,0,0,0,7,61.89a23.6,23.6,0,0,0,7.81,5.39A24.59,24.59,0,0,0,24.57,69.21Zm7.7-42.68A10.5,10.5,0,0,1,28.79,26a8.3,8.3,0,0,1-4.47-3.54A8.44,8.44,0,0,1,23.17,18a8.35,8.35,0,0,1,1.19-4.52,8.26,8.26,0,0,1,3.22-3,9.81,9.81,0,0,1,4.69-1.08,10.19,10.19,0,0,1,4.79,1.08,7.89,7.89,0,0,1,3.22,3,8.49,8.49,0,0,1,1.16,4.41,8.6,8.6,0,0,1-1.16,4.51,8,8,0,0,1-3.22,3,8.08,8.08,0,0,1-1.25.53A10.77,10.77,0,0,1,32.27,26.53Z"/>
    <path d="M46.13,26h3.08V26h-3Z"/>
</svg>