<svg xmlns="http://www.w3.org/2000/svg" viewBox="0 0 397.17 106.87"><g id="Capa_2" data-name="Capa 2"><g id="Capa_1-2" data-name="Capa 1"><path d="M92.77,50.46a16.23,16.23,0,0,0,3.37-2.6A16.37,16.37,0,0,0,80.35,20.5a15.88,15.88,0,0,0,.5-4A16.32,16.32,0,0,0,64.59.13h-.07a16.35,16.35,0,0,0-14,8,16.37,16.37,0,0,0-30,12.34A17.11,17.11,0,0,0,16.42,20,16.38,16.38,0,0,0,4.75,47.86a16,16,0,0,0,3.37,2.6,16.34,16.34,0,0,0,8.34,30.39h.07A16.24,16.24,0,0,0,28,76.1l20.2-20.2v9.5c0,17.69-2.36,28.87-14.82,37.35a2.25,2.25,0,0,0,1.27,4.12,2.21,2.21,0,0,0,1.27-.39C51.41,95.93,52.7,81,52.7,65.4V55.89L72.92,76.11A16.33,16.33,0,0,0,96,53,16.83,16.83,0,0,0,92.77,50.46ZM28,24.78a11.86,11.86,0,1,1,20.21-8.39,2.26,2.26,0,0,0,2.25,2.27h0a2.27,2.27,0,0,0,2.26-2.25A11.83,11.83,0,0,1,64.52,4.64h0a11.82,11.82,0,0,1,8.34,20.14L52.7,45V32.79a2.26,2.26,0,0,0-4.52,0V45L28,24.79ZM24.79,72.91A11.83,11.83,0,0,1,4.64,64.57,11.83,11.83,0,0,1,16.41,52.7a2.26,2.26,0,0,0,0-4.52h0A11.86,11.86,0,0,1,8,27.91a11.78,11.78,0,0,1,8.35-3.44h.05A11.74,11.74,0,0,1,24.78,28h0L45,48.18H33.74a2.26,2.26,0,1,0,0,4.52H45Zm67.94,0a11.74,11.74,0,0,1-8.31,3.43h-.06a11.78,11.78,0,0,1-8.26-3.42L55.89,52.7H67.11a2.26,2.26,0,1,0,0-4.52H55.9L76.11,28a11.85,11.85,0,1,1,8.41,20.21h0a2.26,2.26,0,0,0,0,4.52,11.81,11.81,0,0,1,8.25,20.2Z" fill="#00594a"/><path d="M76.32,84.08A7.71,7.71,0,1,0,84,91.79,7.71,7.71,0,0,0,76.32,84.08Zm0,11.94a4.24,4.24,0,1,1,4.24-4.23A4.24,4.24,0,0,1,76.32,96Z" fill="#00594a"/><circle cx="76.32" cy="91.79" r="2.09" fill="#00594a"/><path d="M157.86,41.94a12.07,12.07,0,0,0-4.16-3.53,13.32,13.32,0,0,0-6.33-1.49,14.24,14.24,0,0,0-7.79,2.18A15.69,15.69,0,0,0,134.14,45a17,17,0,0,0-2,8.32,17,17,0,0,0,2,8.31,15.41,15.41,0,0,0,5.44,5.85,14.47,14.47,0,0,0,7.79,2.14,13.6,13.6,0,0,0,6.4-1.49,11.75,11.75,0,0,0,4.09-3.5v4.33h6V21.81h-6Zm-4.32,20.65A9.51,9.51,0,0,1,148.36,64a9.85,9.85,0,0,1-5.25-1.39,9.63,9.63,0,0,1-3.56-3.79,11.66,11.66,0,0,1-1.29-5.58,11.49,11.49,0,0,1,1.29-5.51,9.77,9.77,0,0,1,3.53-3.79,9.64,9.64,0,0,1,5.21-1.39,9.49,9.49,0,0,1,5.18,1.39,9.83,9.83,0,0,1,3.5,3.76,11.56,11.56,0,0,1,1.29,5.61A11.72,11.72,0,0,1,157,58.8,9.53,9.53,0,0,1,153.54,62.59Z" fill="#00594a"/><path d="M195,41.88a12,12,0,0,0-4.06-3.47,13.27,13.27,0,0,0-6.36-1.49,14.42,14.42,0,0,0-7.83,2.18A15.61,15.61,0,0,0,171.23,45a17,17,0,0,0-2,8.32,17,17,0,0,0,2,8.31,15.21,15.21,0,0,0,5.51,5.85,14.67,14.67,0,0,0,7.79,2.14A13.56,13.56,0,0,0,191,68.1a11.55,11.55,0,0,0,4-3.44v4.27h6V37.58h-6ZM192.64,61a9.13,9.13,0,0,1-7.12,3,10,10,0,0,1-5.28-1.39,9.52,9.52,0,0,1-3.6-3.79,11.66,11.66,0,0,1-1.29-5.58,11.49,11.49,0,0,1,1.29-5.51,9.7,9.7,0,0,1,3.56-3.79,10.67,10.67,0,0,1,10.46,0,9.2,9.2,0,0,1,3.47,3.76,12.41,12.41,0,0,1,1.22,5.65A11,11,0,0,1,192.64,61Z" fill="#00594a"/><path d="M232.54,39.1a14.31,14.31,0,0,0-7.76-2.18,13.49,13.49,0,0,0-6.36,1.49,12.12,12.12,0,0,0-4.2,3.53V21.81h-5.94V68.93h5.94V64.6a11.8,11.8,0,0,0,4.13,3.5,13.79,13.79,0,0,0,6.43,1.49,14.54,14.54,0,0,0,7.76-2.14A15.11,15.11,0,0,0,238,61.6a17.29,17.29,0,0,0,2-8.31A17.36,17.36,0,0,0,238,45,15.38,15.38,0,0,0,232.54,39.1Zm0,19.7A10,10,0,0,1,229,62.59a10.42,10.42,0,0,1-10.4,0,9.19,9.19,0,0,1-3.49-3.79,12,12,0,0,1-1.23-5.51,12.07,12.07,0,0,1,1.26-5.61,9.26,9.26,0,0,1,3.5-3.8,9.89,9.89,0,0,1,13.92,3.8,12.37,12.37,0,0,1,0,11.12Z" fill="#00594a"/><path d="M269.14,41.88a12.16,12.16,0,0,0-4.06-3.47,13.31,13.31,0,0,0-6.37-1.49,14.39,14.39,0,0,0-7.82,2.18A15.63,15.63,0,0,0,245.41,45a18.2,18.2,0,0,0,0,16.63,15.28,15.28,0,0,0,5.51,5.85,14.69,14.69,0,0,0,7.79,2.14,13.53,13.53,0,0,0,6.43-1.49,11.68,11.68,0,0,0,4-3.44v4.27h6V37.58h-6ZM266.82,61a9.11,9.11,0,0,1-7.12,3,10,10,0,0,1-5.28-1.39,9.59,9.59,0,0,1-3.6-3.79,11.66,11.66,0,0,1-1.29-5.58,11.49,11.49,0,0,1,1.29-5.51,9.65,9.65,0,0,1,8.81-5.18,10,10,0,0,1,5.22,1.35,9.18,9.18,0,0,1,3.46,3.76,12.41,12.41,0,0,1,1.22,5.65A11,11,0,0,1,266.82,61Z" fill="#00594a"/><path d="M317.48,28.83A23.3,23.3,0,0,0,309.69,24,27.13,27.13,0,0,0,300,22.33H281.28v46.6h18.81a26.58,26.58,0,0,0,9.67-1.72,23.57,23.57,0,0,0,7.75-4.81,21.6,21.6,0,0,0,5.12-7.4,23.79,23.79,0,0,0,1.81-9.37,23.69,23.69,0,0,0-1.81-9.4A21.78,21.78,0,0,0,317.48,28.83ZM312.1,53.22a11.53,11.53,0,0,1-4.88,4.92,15.6,15.6,0,0,1-7.4,1.68h-8.18V31.38h8.18a15.13,15.13,0,0,1,7.36,1.71A12.18,12.18,0,0,1,312.07,38a15.54,15.54,0,0,1,1.75,7.59A16.14,16.14,0,0,1,312.1,53.22Z" fill="#00594a"/><path d="M347.94,55.33a5.53,5.53,0,0,1-1.32,3.93,4.62,4.62,0,0,1-3.56,1.42,5.26,5.26,0,0,1-2.71-.66,4.13,4.13,0,0,1-1.68-1.85,6.51,6.51,0,0,1-.57-2.84V36.85H328V55.47a14,14,0,0,0,1.91,7.36,13.49,13.49,0,0,0,5.31,5,16.39,16.39,0,0,0,7.83,1.82,16.14,16.14,0,0,0,7.78-1.82,13.41,13.41,0,0,0,5.28-5A14.18,14.18,0,0,0,358,55.4V36.85h-10.1Z" fill="#00594a"/><path d="M395.16,44.31a15.32,15.32,0,0,0-5.54-5.94,15.13,15.13,0,0,0-8.09-2.18,13.94,13.94,0,0,0-5.94,1.26,12.39,12.39,0,0,0-2.44,1.48V21h-10.1V68.93h10V66.55a13.6,13.6,0,0,0,2.57,1.69,13.15,13.15,0,0,0,5.94,1.35,15.13,15.13,0,0,0,8.09-2.18,15.32,15.32,0,0,0,5.54-5.94,17.93,17.93,0,0,0,2-8.58A17.93,17.93,0,0,0,395.16,44.31ZM386,56.79a6.89,6.89,0,0,1-6.27,3.69,7.26,7.26,0,0,1-3.73-.95,6.77,6.77,0,0,1-2.54-2.68,8.16,8.16,0,0,1-.92-4,8.43,8.43,0,0,1,.89-4A6.47,6.47,0,0,1,376,46.26a7.33,7.33,0,0,1,3.76-1,7.17,7.17,0,0,1,3.73,1A6.8,6.8,0,0,1,386,48.93a8.21,8.21,0,0,1,.92,4A8.08,8.08,0,0,1,386,56.79Z" fill="#00594a"/></g></g></svg>