<svg xmlns="http://www.w3.org/2000/svg" viewBox="0 0 265.05 179.6"><g id="Capa_2" data-name="Capa 2"><g id="Capa_1-2" data-name="Capa 1"><path d="M173.79,50.46a16,16,0,0,0,3.38-2.6A16.37,16.37,0,0,0,161.38,20.5a16.86,16.86,0,0,0,.5-4A16.32,16.32,0,0,0,145.62.13h-.08a16.37,16.37,0,0,0-14,8,16,16,0,0,0-2.6-3.38,16.37,16.37,0,0,0-27.38,15.72A17.11,17.11,0,0,0,97.45,20,16.38,16.38,0,0,0,85.77,47.86a16,16,0,0,0,3.38,2.6,16.34,16.34,0,0,0,8.33,30.39h.08A16.22,16.22,0,0,0,109,76.1l20.21-20.2v9.5c0,17.69-2.36,28.87-14.82,37.35a2.25,2.25,0,0,0,1.27,4.12,2.21,2.21,0,0,0,1.27-.39C132.44,95.93,133.72,81,133.72,65.4V55.89l20.22,20.22A16.34,16.34,0,0,0,177.05,53,16.59,16.59,0,0,0,173.79,50.46ZM109,24.78a11.86,11.86,0,1,1,20.21-8.39,2.26,2.26,0,0,0,2.25,2.27h0a2.26,2.26,0,0,0,2.26-2.25A11.84,11.84,0,0,1,145.54,4.64h.06a11.82,11.82,0,0,1,8.33,20.14L133.72,45V32.79a2.26,2.26,0,1,0-4.51,0V45L109,24.79Zm-3.19,48.13A11.82,11.82,0,1,1,97.43,52.7a2.26,2.26,0,0,0,0-4.52h0A11.86,11.86,0,0,1,89,27.91a11.76,11.76,0,0,1,8.35-3.44h0A11.76,11.76,0,0,1,105.81,28h0L126,48.18H114.77a2.26,2.26,0,1,0,0,4.52H126Zm67.95,0a11.74,11.74,0,0,1-8.32,3.43h-.05a11.76,11.76,0,0,1-8.26-3.42L136.92,52.7h11.22a2.26,2.26,0,1,0,0-4.52H136.93L157.14,28a11.85,11.85,0,1,1,8.41,20.21h0a2.26,2.26,0,0,0,0,4.52,11.81,11.81,0,0,1,8.25,20.2Z" fill="#00594a"/><path d="M157.35,84.08a7.71,7.71,0,1,0,7.71,7.71A7.72,7.72,0,0,0,157.35,84.08Zm0,11.94a4.24,4.24,0,1,1,4.23-4.23A4.24,4.24,0,0,1,157.35,96Z" fill="#00594a"/><circle cx="157.35" cy="91.79" r="2.09" fill="#00594a"/><path d="M25.74,151.88a12.27,12.27,0,0,0-4.16-3.53,13.44,13.44,0,0,0-6.33-1.49A14.24,14.24,0,0,0,7.46,149,15.67,15.67,0,0,0,2,154.92a18.2,18.2,0,0,0,0,16.63,15.48,15.48,0,0,0,5.45,5.84,14.38,14.38,0,0,0,7.79,2.14,13.6,13.6,0,0,0,6.4-1.48,12,12,0,0,0,4.09-3.51v4.33h6V131.75h-6Zm-4.32,20.66a9.59,9.59,0,0,1-5.18,1.38A9.94,9.94,0,0,1,11,172.54a9.75,9.75,0,0,1-3.57-3.8,11.71,11.71,0,0,1-1.28-5.57,11.58,11.58,0,0,1,1.28-5.51,9.57,9.57,0,0,1,8.75-5.19,9.57,9.57,0,0,1,5.18,1.39,9.9,9.9,0,0,1,3.5,3.76,12.76,12.76,0,0,1,0,11.12A9.63,9.63,0,0,1,21.42,172.54Z" fill="#00594a"/><path d="M62.83,151.83a12.1,12.1,0,0,0-4.06-3.48,13.4,13.4,0,0,0-6.37-1.49A14.41,14.41,0,0,0,44.58,149a15.67,15.67,0,0,0-5.48,5.88,18.2,18.2,0,0,0,0,16.63,15.35,15.35,0,0,0,5.52,5.84,14.57,14.57,0,0,0,7.78,2.14,13.56,13.56,0,0,0,6.44-1.48,11.87,11.87,0,0,0,4-3.45v4.27h6V147.52h-6Zm-2.31,19.09a9.14,9.14,0,0,1-7.13,3,10.1,10.1,0,0,1-5.28-1.38,9.59,9.59,0,0,1-3.59-3.8,11.6,11.6,0,0,1-1.29-5.57,11.47,11.47,0,0,1,1.29-5.51,9.59,9.59,0,0,1,3.56-3.8,10.63,10.63,0,0,1,10.46,0A9.08,9.08,0,0,1,62,157.59a12.4,12.4,0,0,1,1.22,5.64A11,11,0,0,1,60.52,170.92Z" fill="#00594a"/><path d="M100.42,149a14.31,14.31,0,0,0-7.76-2.18,13.68,13.68,0,0,0-6.37,1.49,12.4,12.4,0,0,0-4.19,3.53V131.75H76.16v47.12H82.1v-4.33a11.93,11.93,0,0,0,4.13,3.51,13.78,13.78,0,0,0,6.43,1.48,14.45,14.45,0,0,0,7.76-2.14,15.15,15.15,0,0,0,5.44-5.84,18.45,18.45,0,0,0,0-16.63A15.33,15.33,0,0,0,100.42,149Zm0,19.7a10.1,10.1,0,0,1-3.56,3.8,10.49,10.49,0,0,1-10.4,0,9.3,9.3,0,0,1-3.5-3.8,13.09,13.09,0,0,1,0-11.12,9.21,9.21,0,0,1,3.49-3.79,10,10,0,0,1,5.22-1.36,9.83,9.83,0,0,1,5.15,1.36,9.72,9.72,0,0,1,3.56,3.79,12.37,12.37,0,0,1,0,11.12Z" fill="#00594a"/><path d="M137,151.82a12.19,12.19,0,0,0-4.06-3.47,13.4,13.4,0,0,0-6.37-1.49,14.41,14.41,0,0,0-7.82,2.18,15.56,15.56,0,0,0-5.47,5.88,18.12,18.12,0,0,0,0,16.63,15.25,15.25,0,0,0,5.51,5.84,14.57,14.57,0,0,0,7.78,2.14,13.56,13.56,0,0,0,6.44-1.48,11.78,11.78,0,0,0,4-3.45v4.27h6V147.52h-6Zm-2.31,19.1a9.13,9.13,0,0,1-7.12,3,10.13,10.13,0,0,1-5.29-1.38,9.66,9.66,0,0,1-3.59-3.8,11.6,11.6,0,0,1-1.29-5.57,11.47,11.47,0,0,1,1.29-5.51,9.66,9.66,0,0,1,3.56-3.8,10.63,10.63,0,0,1,10.46,0,9.08,9.08,0,0,1,3.47,3.76,12.4,12.4,0,0,1,1.22,5.64A11,11,0,0,1,134.7,170.92Z" fill="#00594a"/><path d="M185.36,138.78a23.26,23.26,0,0,0-7.79-4.82,27.41,27.41,0,0,0-9.74-1.68H149.16v46.59H168a26.69,26.69,0,0,0,9.66-1.71,23.64,23.64,0,0,0,7.76-4.82A21.53,21.53,0,0,0,190.5,165a25.13,25.13,0,0,0,0-18.78A21.72,21.72,0,0,0,185.36,138.78ZM180,163.17a11.58,11.58,0,0,1-4.89,4.91,15.53,15.53,0,0,1-7.39,1.69h-8.18V141.32h8.18a15,15,0,0,1,7.36,1.72,12.15,12.15,0,0,1,4.89,4.88,15.54,15.54,0,0,1,1.74,7.59A16.18,16.18,0,0,1,180,163.17Z" fill="#00594a"/><path d="M215.82,165.28a5.52,5.52,0,0,1-1.32,3.92,4.63,4.63,0,0,1-3.57,1.42,5.22,5.22,0,0,1-2.7-.66,4.13,4.13,0,0,1-1.69-1.84,6.69,6.69,0,0,1-.56-2.84V146.8h-10.1v18.61a14,14,0,0,0,1.92,7.36,13.36,13.36,0,0,0,5.31,5,16.35,16.35,0,0,0,7.82,1.82,16.15,16.15,0,0,0,7.79-1.82,13.54,13.54,0,0,0,5.28-5,14.15,14.15,0,0,0,1.91-7.43V146.8H215.82Z" fill="#00594a"/><path d="M263,154.26a15.27,15.27,0,0,0-5.55-5.94,15,15,0,0,0-8.08-2.18,14,14,0,0,0-5.94,1.25,12.58,12.58,0,0,0-2.44,1.48V131h-10.1v47.91h10v-2.38a12.42,12.42,0,0,0,2.57,1.69,13.09,13.09,0,0,0,5.94,1.35,15.06,15.06,0,0,0,8.08-2.17,15.41,15.41,0,0,0,5.55-5.94,19.32,19.32,0,0,0,0-17.16Zm-9.14,12.47a7.13,7.13,0,0,1-2.54,2.71,7,7,0,0,1-3.73,1,7.17,7.17,0,0,1-3.73-1,6.74,6.74,0,0,1-2.54-2.67,8.21,8.21,0,0,1-.93-4,8.5,8.5,0,0,1,.89-4,6.46,6.46,0,0,1,2.55-2.68,7.4,7.4,0,0,1,3.76-.95,7.26,7.26,0,0,1,3.73.95,6.83,6.83,0,0,1,2.54,2.68,8.27,8.27,0,0,1,.92,4A8.13,8.13,0,0,1,253.9,166.73Z" fill="#00594a"/></g></g></svg>