<?xml version="1.0" encoding="utf-8"?>
<!-- Generator: Adobe Illustrator 24.3.0, SVG Export Plug-In . SVG Version: 6.00 Build 0)  -->
<svg version="1.1" id="Capa_1" xmlns="http://www.w3.org/2000/svg" xmlns:xlink="http://www.w3.org/1999/xlink" x="0px" y="0px"
	 viewBox="0 0 223.4 236.7" style="enable-background:new 0 0 223.4 236.7;" xml:space="preserve">
<style type="text/css">
	.st0{fill:none;stroke:#00594A;stroke-width:10;stroke-linecap:round;stroke-linejoin:round;}
	.st1{fill:none;stroke:#00594A;stroke-width:7.69;stroke-miterlimit:10;}
	.st2{fill:#00594A;}
</style>
<g id="Capa_2_1_">
	<g id="Capa_1-2">
		<path class="st0" d="M111.7,72.6v72.2c0,37.6-4.3,65.9-35,86.8"/>
		<line class="st0" x1="74.7" y1="111.7" x2="148.6" y2="111.7"/>
		<path class="st0" d="M187.1,111.7c17.2,0.1,31.1,14.1,31,31.3c-0.1,17.2-14.1,31.1-31.3,31c-8.2,0-16-3.3-21.8-9l0,0L58.4,58.4
			l0,0c-12.2-12.2-31.9-12.3-44.2-0.2s-12.3,31.9-0.2,44.2c5.9,5.9,13.9,9.2,22.2,9.2c-17.2,0.1-31.1,14.1-31,31.3
			s14.1,31.1,31.3,31c8.2,0,16-3.3,21.8-9l0,0L165,58.4l0,0c12.2-12.2,31.9-12.3,44.2-0.2s12.3,31.9,0.2,44.2
			C203.5,108.4,195.5,111.7,187.1,111.7z"/>
		<path class="st0" d="M58.4,58.4c-12.2-12.2-12.3-31.9-0.2-44.2s31.9-12.3,44.2-0.2c5.9,5.9,9.2,13.9,9.2,22.2
			c0.1-17.2,14.1-31.1,31.3-31s31.1,14.1,31,31.3c0,8.2-3.3,16-9,21.8"/>
		<circle class="st1" cx="169" cy="203.3" r="13.2"/>
		<circle class="st2" cx="169" cy="203.3" r="4.6"/>
	</g>
</g>
<g>
	<path class="st2" d="M464.1,111.8c2.7-1.6,5.2-3.5,7.5-5.8c14.1-14.2,14-37.2-0.2-51.3c-9.4-9.4-22.8-12.5-34.8-9.3
		c0.7-2.8,1.1-5.8,1.1-8.8c0-9.7-3.7-18.8-10.5-25.6c-6.8-6.9-15.9-10.7-25.5-10.7c-0.1,0-0.1,0-0.2,0c-13.2,0-24.8,7.1-31.1,17.7
		c-1.6-2.7-3.5-5.3-5.8-7.5c-14.2-14.1-37.2-14-51.3,0.2c-9.3,9.4-12.4,22.7-9.4,34.6c-2.9-0.7-5.9-1.1-9-1.2
		c-9.7,0-18.8,3.7-25.7,10.5c-14.2,14.1-14.3,37.1-0.2,51.3c2.2,2.2,4.8,4.2,7.5,5.8c-2.6,1.6-5,3.4-7.2,5.7
		c-6.8,6.9-10.5,16-10.5,25.6s3.8,18.7,10.7,25.5c6.8,6.8,15.9,10.5,25.5,10.5c0.1,0,0.1,0,0.2,0c9.6,0,18.5-3.8,25.3-10.5
		l44.7-44.7v21c0,39.2-5.2,63.9-32.8,82.7c-2.3,1.6-2.9,4.7-1.3,6.9c1,1.4,2.5,2.2,4.1,2.2c1,0,1.9-0.3,2.8-0.9
		c34.3-23.4,37.2-56.4,37.2-91v-21.1l44.8,44.8c6.8,6.7,15.8,10.4,25.3,10.5c9.6,0,18.8-3.7,25.6-10.5s10.7-15.9,10.7-25.5
		c0-9.7-3.7-18.8-10.5-25.6C469.1,115.2,466.7,113.3,464.1,111.8z M320.6,54.9c-10.3-10.2-10.3-26.9-0.1-37.1
		c10.2-10.3,26.9-10.3,37.1-0.1c4.9,4.9,7.8,11.7,7.8,18.7c0,2.8,2.2,5,5,5c0,0,0,0,0,0c2.8,0,5-2.2,5-5
		c0.1-14.4,11.8-26.1,26.2-26.1c0,0,0.1,0,0.1,0c7,0,13.5,2.8,18.5,7.7c4.9,5,7.6,11.5,7.6,18.5c0,6.9-2.7,13.4-7.6,18.3l-44.8,44.8
		v-27c0-2.8-2.2-5-5-5s-5,2.2-5,5v27L320.6,54.9C320.6,54.9,320.6,54.9,320.6,54.9C320.6,54.9,320.6,54.9,320.6,54.9z M313.6,161.4
		c-4.9,4.9-11.4,7.6-18.3,7.6c-7,0-13.6-2.7-18.5-7.6S269,150,269,143s2.7-13.6,7.6-18.5c4.9-5,11.5-7.7,18.5-7.7c2.8,0,5-2.3,5-5
		c0-2.8-2.2-5-5-5c0,0,0,0-0.1,0c-6.9,0-13.7-2.8-18.6-7.8c-10.2-10.3-10.1-26.9,0.1-37.1c5-4.9,11.5-7.6,18.5-7.6c0,0,0.1,0,0.1,0
		c7,0,13.6,2.8,18.5,7.8l0,0c0,0,0,0,0,0c0,0,0,0,0,0l44.7,44.7h-24.9c-2.8,0-5,2.2-5,5s2.2,5,5,5h24.9L313.6,161.4z M464,161.4
		c-4.9,4.9-11.5,7.6-18.4,7.6c0,0-0.1,0-0.1,0c-6.9,0-13.4-2.7-18.3-7.6l-44.8-44.8h24.8c2.8,0,5-2.2,5-5s-2.2-5-5-5h-24.8L427.2,62
		c10.2-10.3,26.9-10.3,37.1-0.1c10.3,10.2,10.3,26.9,0.1,37.1c-4.9,4.9-11.7,7.8-18.6,7.8c0,0,0,0-0.1,0c-2.8,0-5,2.2-5,5
		c0,2.8,2.2,5,5,5c7,0,13.5,2.8,18.4,7.7c4.9,5,7.6,11.5,7.6,18.5C471.7,150,469,156.5,464,161.4z"/>
	<path class="st2" d="M427.7,186.2c-9.4,0-17.1,7.7-17.1,17.1s7.7,17.1,17.1,17.1c9.4,0,17.1-7.7,17.1-17.1S437.1,186.2,427.7,186.2
		z M427.7,212.6c-5.2,0-9.4-4.2-9.4-9.4s4.2-9.4,9.4-9.4c5.2,0,9.4,4.2,9.4,9.4S432.8,212.6,427.7,212.6z"/>
	<circle class="st2" cx="427.7" cy="203.3" r="4.6"/>
</g>
</svg>
