<svg xmlns="http://www.w3.org/2000/svg" viewBox="0 0 223.41 236.66"><g id="Capa_2" data-name="Capa 2"><g id="Capa_1-2" data-name="Capa 1"><path d="M111.71,72.64v72.2c0,37.6-4.27,65.92-35,86.82" fill="none" stroke="#00594a" stroke-linecap="round" stroke-linejoin="round" stroke-width="10"/><line x1="74.74" y1="111.71" x2="148.63" y2="111.71" fill="none" stroke="#00594a" stroke-linecap="round" stroke-linejoin="round" stroke-width="10"/><path d="M187.07,111.71A31.16,31.16,0,1,1,165,165h0L58.44,58.44h0a31.25,31.25,0,1,0-22.1,53.27A31.17,31.17,0,1,0,58.44,165h0L165,58.44h0a31.25,31.25,0,1,1,22.1,53.27Z" fill="none" stroke="#00594a" stroke-linecap="round" stroke-linejoin="round" stroke-width="10"/><path d="M58.44,58.44a31.25,31.25,0,1,1,53.27-22.1A31.17,31.17,0,1,1,165,58.44" fill="none" stroke="#00594a" stroke-linecap="round" stroke-linejoin="round" stroke-width="10"/><circle cx="169.02" cy="203.26" r="13.22" fill="none" stroke="#00594a" stroke-miterlimit="10" stroke-width="7.69"/><circle cx="169.02" cy="203.26" r="4.63" fill="#00594a"/></g></g></svg>